<svg width="8560" height="1120" viewBox="0 0 8560 1120" fill="none" xmlns="http://www.w3.org/2000/svg">
<path d="M784.779 309.834C842.127 274.889 899.323 239.66 956.867 205.076C1011.49 172.245 1075.75 202.524 1088.13 266.415C1095.3 303.375 1079.74 343.302 1048.29 362.749C945.175 426.5 841.91 489.998 738.13 552.525C706.009 571.877 672.922 568.317 643.649 544.602C613.913 520.525 604.541 487.315 611.516 448.661C619.478 419.236 637.701 399.564 662.554 384.847C703.646 360.517 744.07 334.905 784.779 309.834Z" fill="#FABC05"/>
<path d="M826.882 284.424C769.679 249.208 712.33 214.267 655.326 178.694C601.214 144.924 593.805 70.7425 639.764 27.4136C666.35 2.35669 706.718 -3.32143 738.32 15.8541C841.921 78.7199 945.386 141.852 1048.31 205.938C1080.17 225.773 1093.8 257.958 1089.09 296.711C1084.3 336.065 1061.88 361.28 1026.84 374.203C998.839 381.602 973.671 374.691 949.231 359.215C908.82 333.625 867.702 309.287 826.882 284.424Z" fill="#109D58"/>
<path d="M305.506 259.506C268.799 281.631 232.072 303.715 195.403 325.908C173.952 338.891 152.74 352.316 131.178 365.081C87.7358 390.807 36.1225 375.728 11.491 330.416C-12.0164 287.178 1.49368 231.119 43.331 205.209C145.625 141.864 248.183 78.9803 351.112 16.8011C382.679 -2.27051 415.43 0.128126 444.622 22.9264C475.431 46.9895 485.518 80.8504 478.599 120.548C474.307 130.151 471.744 141.412 465.319 148.979C454.866 161.288 442.987 173.074 429.762 181.728C388.836 208.502 346.994 233.699 305.506 259.506Z" fill="#E94436"/>
<path d="M263.418 284.324C299.835 306.982 336.227 329.69 372.678 352.285C393.997 365.503 415.563 378.282 436.762 391.702C479.485 418.76 492.987 473.717 468.313 519.002C444.767 562.222 392.255 577.843 350.184 552.352C247.328 490.037 144.719 427.257 42.497 363.777C11.1467 344.308 -3.27029 313.017 0.744834 274.797C4.98136 234.454 27.5776 208.259 63.4412 194.766C73.4258 193.912 83.9 190.633 93.2927 192.756C108.566 196.207 124.128 201.226 137.804 209.05C180.122 233.262 221.611 259.109 263.418 284.324Z" fill="#4385F3"/>
<path d="M1526.1 453.696C1485.29 453.696 1447.72 443.798 1413.38 424.002C1379.04 404.206 1351.77 376.936 1331.57 342.192C1311.37 307.448 1301.27 269.068 1301.27 227.052C1301.27 185.036 1311.37 146.656 1331.57 111.912C1351.77 77.168 1379.04 49.898 1413.38 30.102C1447.72 10.306 1485.29 0.407968 1526.1 0.407968C1558.01 0.407968 1587.91 6.06397 1615.78 17.376C1644.06 28.688 1667.29 44.646 1685.47 65.25L1648.51 102.216C1634.77 85.248 1617.2 72.32 1595.79 63.432C1574.37 54.14 1551.35 49.494 1526.7 49.494C1496 49.494 1467.31 56.968 1440.65 71.916C1414.39 86.46 1393.18 107.266 1377.02 134.334C1361.26 160.998 1353.39 191.904 1353.39 227.052C1353.39 262.2 1361.26 293.308 1377.02 320.376C1393.18 347.04 1414.59 367.846 1441.26 382.794C1467.92 397.338 1496.4 404.61 1526.7 404.61C1555.79 404.61 1580.03 400.166 1599.42 391.278C1619.22 381.986 1636.19 369.866 1650.33 354.918C1660.83 343.606 1669.31 330.072 1675.78 314.316C1682.24 298.156 1686.28 280.38 1687.9 260.988H1527.31V213.114H1735.77C1737.79 224.426 1738.8 234.93 1738.8 244.626C1738.8 271.29 1734.56 297.348 1726.08 322.8C1717.59 347.848 1704.06 369.866 1685.47 388.854C1645.48 432.082 1592.35 453.696 1526.1 453.696ZM1944.6 453.696C1914.3 453.696 1887.03 446.424 1862.79 431.88C1838.55 417.336 1819.56 397.54 1805.82 372.492C1792.49 347.444 1785.82 319.77 1785.82 289.47C1785.82 259.17 1792.49 231.496 1805.82 206.448C1819.56 181.4 1838.55 161.604 1862.79 147.06C1887.03 132.516 1914.3 125.244 1944.6 125.244C1974.9 125.244 2002.17 132.516 2026.41 147.06C2050.65 161.604 2069.43 181.4 2082.76 206.448C2096.5 231.496 2103.37 259.17 2103.37 289.47C2103.37 319.77 2096.5 347.444 2082.76 372.492C2069.43 397.54 2050.65 417.336 2026.41 431.88C2002.17 446.424 1974.9 453.696 1944.6 453.696ZM1944.6 407.034C1963.58 407.034 1981.16 402.388 1997.32 393.096C2013.88 383.4 2027.01 369.664 2036.71 351.888C2046.81 334.112 2051.86 313.306 2051.86 289.47C2051.86 265.634 2046.81 244.828 2036.71 227.052C2027.01 209.276 2013.88 195.742 1997.32 186.45C1981.16 176.754 1963.58 171.906 1944.6 171.906C1925.61 171.906 1907.83 176.754 1891.27 186.45C1874.7 195.742 1861.37 209.276 1851.27 227.052C1841.58 244.828 1836.73 265.634 1836.73 289.47C1836.73 313.306 1841.58 334.112 1851.27 351.888C1861.37 369.664 1874.7 383.4 1891.27 393.096C1907.83 402.388 1925.61 407.034 1944.6 407.034ZM2305.59 453.696C2275.29 453.696 2248.02 446.424 2223.78 431.88C2199.54 417.336 2180.55 397.54 2166.82 372.492C2153.49 347.444 2146.82 319.77 2146.82 289.47C2146.82 259.17 2153.49 231.496 2166.82 206.448C2180.55 181.4 2199.54 161.604 2223.78 147.06C2248.02 132.516 2275.29 125.244 2305.59 125.244C2335.89 125.244 2363.16 132.516 2387.4 147.06C2411.64 161.604 2430.43 181.4 2443.76 206.448C2457.5 231.496 2464.36 259.17 2464.36 289.47C2464.36 319.77 2457.5 347.444 2443.76 372.492C2430.43 397.54 2411.64 417.336 2387.4 431.88C2363.16 446.424 2335.89 453.696 2305.59 453.696ZM2305.59 407.034C2324.58 407.034 2342.15 402.388 2358.31 393.096C2374.88 383.4 2388.01 369.664 2397.7 351.888C2407.8 334.112 2412.85 313.306 2412.85 289.47C2412.85 265.634 2407.8 244.828 2397.7 227.052C2388.01 209.276 2374.88 195.742 2358.31 186.45C2342.15 176.754 2324.58 171.906 2305.59 171.906C2286.6 171.906 2268.83 176.754 2252.26 186.45C2235.7 195.742 2222.37 209.276 2212.27 227.052C2202.57 244.828 2197.72 265.634 2197.72 289.47C2197.72 313.306 2202.57 334.112 2212.27 351.888C2222.37 369.664 2235.7 383.4 2252.26 393.096C2268.83 402.388 2286.6 407.034 2305.59 407.034ZM2659.92 584.592C2623.56 584.592 2593.46 576.108 2569.63 559.14C2546.2 542.172 2530.44 521.77 2522.36 497.934L2569.02 477.936C2575.89 495.712 2587.2 510.054 2602.96 520.962C2619.12 532.274 2638.11 537.93 2659.92 537.93C2691.84 537.93 2716.48 528.638 2733.85 510.054C2751.63 491.47 2760.52 465.21 2760.52 431.274V396.732H2758.09C2747.99 412.488 2733.65 425.416 2715.07 435.516C2696.89 445.212 2676.08 450.06 2652.65 450.06C2625.99 450.06 2601.54 443.192 2579.32 429.456C2557.51 415.72 2540.14 396.53 2527.21 371.886C2514.28 347.242 2507.82 319.164 2507.82 287.652C2507.82 256.544 2514.28 228.668 2527.21 204.024C2540.14 178.976 2557.51 159.584 2579.32 145.848C2601.54 132.112 2625.99 125.244 2652.65 125.244C2676.08 125.244 2696.89 130.294 2715.07 140.394C2733.65 150.09 2747.99 163.018 2758.09 179.178H2760.52V134.94H2809.6V431.88C2809.6 481.572 2795.87 519.346 2768.4 545.202C2740.92 571.462 2704.77 584.592 2659.92 584.592ZM2659.92 403.398C2678.51 403.398 2695.27 398.752 2710.22 389.46C2725.57 380.168 2737.69 366.836 2746.58 349.464C2755.87 332.092 2760.52 311.488 2760.52 287.652C2760.52 263.412 2755.87 242.606 2746.58 225.234C2737.69 207.862 2725.57 194.732 2710.22 185.844C2695.27 176.552 2678.51 171.906 2659.92 171.906C2641.34 171.906 2624.37 176.552 2609.02 185.844C2593.67 195.136 2581.34 208.468 2572.05 225.84C2563.16 243.212 2558.72 263.816 2558.72 287.652C2558.72 311.488 2563.16 332.294 2572.05 350.07C2581.34 367.442 2593.67 380.774 2609.02 390.066C2624.37 398.954 2641.34 403.398 2659.92 403.398ZM2885.77 10.104H2937.28V444H2885.77V10.104ZM3148.2 453.696C3118.71 453.696 3092.24 446.626 3068.81 432.486C3045.38 418.346 3027 398.954 3013.67 374.31C3000.74 349.262 2994.27 321.184 2994.27 290.076C2994.27 260.18 3000.33 232.708 3012.45 207.66C3024.98 182.612 3042.55 162.614 3065.18 147.666C3087.8 132.718 3114.06 125.244 3143.96 125.244C3174.26 125.244 3200.52 132.112 3222.74 145.848C3244.96 159.18 3261.92 177.764 3273.64 201.6C3285.76 225.436 3291.82 252.706 3291.82 283.41C3291.82 289.47 3291.21 294.722 3290 299.166H3045.78C3047 322.598 3052.65 342.394 3062.75 358.554C3072.85 374.714 3085.58 386.834 3100.93 394.914C3116.69 402.994 3133.05 407.034 3150.02 407.034C3189.61 407.034 3220.11 388.45 3241.52 351.282L3285.15 372.492C3271.82 397.54 3253.64 417.336 3230.61 431.88C3207.99 446.424 3180.52 453.696 3148.2 453.696ZM3237.28 256.746C3236.47 243.818 3232.84 230.89 3226.37 217.962C3219.91 205.034 3209.61 194.126 3195.47 185.238C3181.73 176.35 3164.36 171.906 3143.35 171.906C3119.11 171.906 3098.51 179.784 3081.54 195.54C3064.97 210.892 3054.07 231.294 3048.81 256.746H3237.28ZM3503.25 10.104H3634.15C3678.59 10.104 3717.37 19.396 3750.5 37.98C3783.63 56.16 3809.08 81.612 3826.86 114.336C3844.63 147.06 3853.52 184.632 3853.52 227.052C3853.52 269.472 3844.63 307.044 3826.86 339.768C3809.08 372.492 3783.63 398.146 3750.5 416.73C3717.37 434.91 3678.59 444 3634.15 444H3503.25V10.104ZM3634.15 394.914C3685.46 394.914 3726.06 380.168 3755.95 350.676C3786.25 321.184 3801.4 279.976 3801.4 227.052C3801.4 174.128 3786.25 132.92 3755.95 103.428C3726.06 73.936 3685.46 59.19 3634.15 59.19H3554.16V394.914H3634.15ZM4047.73 453.696C4018.24 453.696 3991.77 446.626 3968.34 432.486C3944.91 418.346 3926.53 398.954 3913.2 374.31C3900.27 349.262 3893.8 321.184 3893.8 290.076C3893.8 260.18 3899.86 232.708 3911.98 207.66C3924.51 182.612 3942.08 162.614 3964.71 147.666C3987.33 132.718 4013.59 125.244 4043.49 125.244C4073.79 125.244 4100.05 132.112 4122.27 145.848C4144.49 159.18 4161.45 177.764 4173.17 201.6C4185.29 225.436 4191.35 252.706 4191.35 283.41C4191.35 289.47 4190.74 294.722 4189.53 299.166H3945.31C3946.53 322.598 3952.18 342.394 3962.28 358.554C3972.38 374.714 3985.11 386.834 4000.46 394.914C4016.22 402.994 4032.58 407.034 4049.55 407.034C4089.14 407.034 4119.64 388.45 4141.05 351.282L4184.68 372.492C4171.35 397.54 4153.17 417.336 4130.14 431.88C4107.52 446.424 4080.05 453.696 4047.73 453.696ZM4136.81 256.746C4136 243.818 4132.37 230.89 4125.9 217.962C4119.44 205.034 4109.14 194.126 4095 185.238C4081.26 176.35 4063.89 171.906 4042.88 171.906C4018.64 171.906 3998.04 179.784 3981.07 195.54C3964.5 210.892 3953.6 231.294 3948.34 256.746H4136.81ZM4211.78 134.94H4266.93L4362.67 383.4H4363.89L4460.85 134.94H4514.78L4388.73 444H4336.62L4211.78 134.94ZM4685.69 453.696C4656.19 453.696 4629.73 446.626 4606.3 432.486C4582.87 418.346 4564.49 398.954 4551.15 374.31C4538.23 349.262 4531.76 321.184 4531.76 290.076C4531.76 260.18 4537.82 232.708 4549.94 207.66C4562.47 182.612 4580.04 162.614 4602.66 147.666C4625.29 132.718 4651.55 125.244 4681.44 125.244C4711.74 125.244 4738 132.112 4760.22 145.848C4782.44 159.18 4799.41 177.764 4811.13 201.6C4823.25 225.436 4829.31 252.706 4829.31 283.41C4829.31 289.47 4828.7 294.722 4827.49 299.166H4583.27C4584.48 322.598 4590.14 342.394 4600.24 358.554C4610.34 374.714 4623.07 386.834 4638.42 394.914C4654.17 402.994 4670.54 407.034 4687.5 407.034C4727.1 407.034 4757.6 388.45 4779.01 351.282L4822.64 372.492C4809.31 397.54 4791.13 417.336 4768.1 431.88C4745.48 446.424 4718.01 453.696 4685.69 453.696ZM4774.77 256.746C4773.96 243.818 4770.32 230.89 4763.86 217.962C4757.4 205.034 4747.09 194.126 4732.95 185.238C4719.22 176.35 4701.85 171.906 4680.84 171.906C4656.6 171.906 4635.99 179.784 4619.03 195.54C4602.46 210.892 4591.55 231.294 4586.3 256.746H4774.77ZM4889.59 10.104H4941.1V444H4889.59V10.104ZM5156.87 453.696C5126.57 453.696 5099.3 446.424 5075.06 431.88C5050.82 417.336 5031.83 397.54 5018.1 372.492C5004.76 347.444 4998.1 319.77 4998.1 289.47C4998.1 259.17 5004.76 231.496 5018.1 206.448C5031.83 181.4 5050.82 161.604 5075.06 147.06C5099.3 132.516 5126.57 125.244 5156.87 125.244C5187.17 125.244 5214.44 132.516 5238.68 147.06C5262.92 161.604 5281.71 181.4 5295.04 206.448C5308.77 231.496 5315.64 259.17 5315.64 289.47C5315.64 319.77 5308.77 347.444 5295.04 372.492C5281.71 397.54 5262.92 417.336 5238.68 431.88C5214.44 446.424 5187.17 453.696 5156.87 453.696ZM5156.87 407.034C5175.86 407.034 5193.43 402.388 5209.59 393.096C5226.16 383.4 5239.29 369.664 5248.98 351.888C5259.08 334.112 5264.13 313.306 5264.13 289.47C5264.13 265.634 5259.08 244.828 5248.98 227.052C5239.29 209.276 5226.16 195.742 5209.59 186.45C5193.43 176.754 5175.86 171.906 5156.87 171.906C5137.88 171.906 5120.11 176.754 5103.54 186.45C5086.98 195.742 5073.65 209.276 5063.55 227.052C5053.85 244.828 5049 265.634 5049 289.47C5049 313.306 5053.85 334.112 5063.55 351.888C5073.65 369.664 5086.98 383.4 5103.54 393.096C5120.11 402.388 5137.88 407.034 5156.87 407.034ZM5370.07 134.94H5419.16V180.996H5421.58C5430.87 165.24 5444.81 152.11 5463.4 141.606C5482.38 130.698 5503.59 125.244 5527.03 125.244C5554.5 125.244 5579.55 132.314 5602.17 146.454C5624.79 160.594 5642.57 180.188 5655.5 205.236C5668.43 230.284 5674.89 258.362 5674.89 289.47C5674.89 320.982 5668.43 349.262 5655.5 374.31C5642.57 398.954 5624.79 418.346 5602.17 432.486C5579.55 446.626 5554.5 453.696 5527.03 453.696C5503.59 453.696 5482.38 448.444 5463.4 437.94C5444.81 427.032 5430.87 413.902 5421.58 398.55H5419.16L5421.58 440.97V574.896H5370.07V134.94ZM5520.97 407.034C5538.74 407.034 5555.51 402.186 5571.26 392.49C5587.02 382.794 5599.54 369.058 5608.84 351.282C5618.53 333.102 5623.38 312.498 5623.38 289.47C5623.38 266.442 5618.53 246.04 5608.84 228.264C5599.54 210.084 5587.02 196.146 5571.26 186.45C5555.51 176.754 5538.74 171.906 5520.97 171.906C5503.19 171.906 5486.42 176.754 5470.67 186.45C5454.91 196.146 5442.39 209.882 5433.1 227.658C5423.8 245.434 5419.16 266.038 5419.16 289.47C5419.16 312.902 5423.8 333.506 5433.1 351.282C5442.39 369.058 5454.91 382.794 5470.67 392.49C5486.42 402.186 5503.19 407.034 5520.97 407.034ZM5872.24 453.696C5842.75 453.696 5816.28 446.626 5792.85 432.486C5769.42 418.346 5751.04 398.954 5737.71 374.31C5724.78 349.262 5718.31 321.184 5718.31 290.076C5718.31 260.18 5724.37 232.708 5736.49 207.66C5749.02 182.612 5766.59 162.614 5789.22 147.666C5811.84 132.718 5838.1 125.244 5868 125.244C5898.3 125.244 5924.56 132.112 5946.78 145.848C5969 159.18 5985.96 177.764 5997.68 201.6C6009.8 225.436 6015.86 252.706 6015.86 283.41C6015.86 289.47 6015.25 294.722 6014.04 299.166H5769.82C5771.04 322.598 5776.69 342.394 5786.79 358.554C5796.89 374.714 5809.62 386.834 5824.97 394.914C5840.73 402.994 5857.09 407.034 5874.06 407.034C5913.65 407.034 5944.15 388.45 5965.56 351.282L6009.19 372.492C5995.86 397.54 5977.68 417.336 5954.65 431.88C5932.03 446.424 5904.56 453.696 5872.24 453.696ZM5961.32 256.746C5960.51 243.818 5956.88 230.89 5950.41 217.962C5943.95 205.034 5933.65 194.126 5919.51 185.238C5905.77 176.35 5888.4 171.906 5867.39 171.906C5843.15 171.906 5822.55 179.784 5805.58 195.54C5789.01 210.892 5778.11 231.294 5772.85 256.746H5961.32ZM6076.14 134.94H6125.23V184.632H6127.65C6133.71 167.664 6145.43 153.726 6162.8 142.818C6180.17 131.506 6198.35 125.85 6217.34 125.85C6231.48 125.85 6243.6 127.87 6253.7 131.91V187.662C6240.77 181.198 6226.23 177.966 6210.07 177.966C6195.12 177.966 6181.38 182.208 6168.86 190.692C6156.34 199.176 6146.24 210.69 6138.56 225.234C6131.29 239.374 6127.65 254.726 6127.65 271.29V444H6076.14V134.94ZM6646.32 453.696C6605.52 453.696 6567.95 443.798 6533.61 424.002C6499.27 404.206 6472 376.936 6451.8 342.192C6431.6 307.448 6421.5 269.068 6421.5 227.052C6421.5 185.036 6431.6 146.656 6451.8 111.912C6472 77.168 6499.27 49.898 6533.61 30.102C6567.95 10.306 6605.52 0.407968 6646.32 0.407968C6678.24 0.407968 6708.13 6.06397 6736.01 17.376C6764.29 28.688 6787.52 44.646 6805.7 65.25L6768.73 102.216C6755 85.248 6737.42 72.32 6716.01 63.432C6694.6 54.14 6671.57 49.494 6646.93 49.494C6616.22 49.494 6587.54 56.968 6560.88 71.916C6534.62 86.46 6513.41 107.266 6497.25 134.334C6481.49 160.998 6473.61 191.904 6473.61 227.052C6473.61 262.2 6481.49 293.308 6497.25 320.376C6513.41 347.04 6534.82 367.846 6561.48 382.794C6588.15 397.338 6616.63 404.61 6646.93 404.61C6676.02 404.61 6700.26 400.166 6719.65 391.278C6739.44 381.986 6756.41 369.866 6770.55 354.918C6781.06 343.606 6789.54 330.072 6796 314.316C6802.47 298.156 6806.51 280.38 6808.12 260.988H6647.53V213.114H6856C6858.02 224.426 6859.03 234.93 6859.03 244.626C6859.03 271.29 6854.79 297.348 6846.3 322.8C6837.82 347.848 6824.28 369.866 6805.7 388.854C6765.7 432.082 6712.58 453.696 6646.32 453.696ZM6913.54 134.94H6962.62V184.632H6965.05C6971.11 167.664 6982.82 153.726 7000.19 142.818C7017.57 131.506 7035.75 125.85 7054.73 125.85C7068.87 125.85 7080.99 127.87 7091.09 131.91V187.662C7078.17 181.198 7063.62 177.966 7047.46 177.966C7032.51 177.966 7018.78 182.208 7006.25 190.692C6993.73 199.176 6983.63 210.69 6975.95 225.234C6968.68 239.374 6965.05 254.726 6965.05 271.29V444H6913.54V134.94ZM7264.85 453.696C7234.55 453.696 7207.28 446.424 7183.04 431.88C7158.8 417.336 7139.81 397.54 7126.08 372.492C7112.74 347.444 7106.08 319.77 7106.08 289.47C7106.08 259.17 7112.74 231.496 7126.08 206.448C7139.81 181.4 7158.8 161.604 7183.04 147.06C7207.28 132.516 7234.55 125.244 7264.85 125.244C7295.15 125.244 7322.42 132.516 7346.66 147.06C7370.9 161.604 7389.69 181.4 7403.02 206.448C7416.75 231.496 7423.62 259.17 7423.62 289.47C7423.62 319.77 7416.75 347.444 7403.02 372.492C7389.69 397.54 7370.9 417.336 7346.66 431.88C7322.42 446.424 7295.15 453.696 7264.85 453.696ZM7264.85 407.034C7283.84 407.034 7301.41 402.388 7317.57 393.096C7334.14 383.4 7347.27 369.664 7356.96 351.888C7367.06 334.112 7372.11 313.306 7372.11 289.47C7372.11 265.634 7367.06 244.828 7356.96 227.052C7347.27 209.276 7334.14 195.742 7317.57 186.45C7301.41 176.754 7283.84 171.906 7264.85 171.906C7245.86 171.906 7228.09 176.754 7211.52 186.45C7194.96 195.742 7181.63 209.276 7171.53 227.052C7161.83 244.828 7156.98 265.634 7156.98 289.47C7156.98 313.306 7161.83 334.112 7171.53 351.888C7181.63 369.664 7194.96 383.4 7211.52 393.096C7228.09 402.388 7245.86 407.034 7264.85 407.034ZM7592.59 453.696C7555.42 453.696 7526.94 442.788 7507.14 420.972C7487.75 399.156 7478.05 368.654 7478.05 329.466V134.94H7529.56V321.588C7529.56 351.08 7536.23 372.694 7549.56 386.43C7562.89 400.166 7580.87 407.034 7603.49 407.034C7620.87 407.034 7636.22 402.388 7649.55 393.096C7663.29 383.804 7673.79 371.684 7681.06 356.736C7688.74 341.788 7692.58 326.032 7692.58 309.468V134.94H7744.09V444H7695V399.156H7692.58C7684.09 414.508 7670.56 427.436 7651.97 437.94C7633.39 448.444 7613.59 453.696 7592.59 453.696ZM7817.74 134.94H7866.83V180.996H7869.25C7878.55 165.24 7892.48 152.11 7911.07 141.606C7930.06 130.698 7951.27 125.244 7974.7 125.244C8002.17 125.244 8027.22 132.314 8049.84 146.454C8072.47 160.594 8090.24 180.188 8103.17 205.236C8116.1 230.284 8122.56 258.362 8122.56 289.47C8122.56 320.982 8116.1 349.262 8103.17 374.31C8090.24 398.954 8072.47 418.346 8049.84 432.486C8027.22 446.626 8002.17 453.696 7974.7 453.696C7951.27 453.696 7930.06 448.444 7911.07 437.94C7892.48 427.032 7878.55 413.902 7869.25 398.55H7866.83L7869.25 440.97V574.896H7817.74V134.94ZM7968.64 407.034C7986.41 407.034 8003.18 402.186 8018.94 392.49C8034.69 382.794 8047.22 369.058 8056.51 351.282C8066.2 333.102 8071.05 312.498 8071.05 289.47C8071.05 266.442 8066.2 246.04 8056.51 228.264C8047.22 210.084 8034.69 196.146 8018.94 186.45C8003.18 176.754 7986.41 171.906 7968.64 171.906C7950.86 171.906 7934.1 176.754 7918.34 186.45C7902.58 196.146 7890.06 209.882 7880.77 227.658C7871.48 245.434 7866.83 266.038 7866.83 289.47C7866.83 312.902 7871.48 333.506 7880.77 351.282C7890.06 369.058 7902.58 382.794 7918.34 392.49C7934.1 402.186 7950.86 407.034 7968.64 407.034ZM8287.26 453.696C8254.13 453.696 8226.45 446.02 8204.23 430.668C8182.01 414.912 8166.26 394.914 8156.97 370.674L8203.02 350.07C8210.7 368.654 8222.01 382.996 8236.96 393.096C8252.31 403.196 8269.08 408.246 8287.26 408.246C8306.65 408.246 8323.21 404.408 8336.95 396.732C8350.68 388.652 8357.55 377.34 8357.55 362.796C8357.55 349.868 8352.1 339.566 8341.19 331.89C8330.28 323.81 8313.11 316.942 8289.68 311.286L8252.11 301.59C8227.46 295.53 8207.26 285.228 8191.51 270.684C8175.75 256.14 8167.87 237.354 8167.87 214.326C8167.87 196.55 8173.13 180.996 8183.63 167.664C8194.54 153.928 8208.88 143.424 8226.66 136.152C8244.43 128.88 8263.62 125.244 8284.23 125.244C8311.29 125.244 8335.33 131.102 8356.34 142.818C8377.75 154.534 8392.9 170.896 8401.79 191.904L8356.95 212.508C8343.21 185.036 8318.77 171.3 8283.62 171.3C8266.65 171.3 8251.7 175.34 8238.78 183.42C8226.25 191.096 8219.99 200.994 8219.99 213.114C8219.99 224.426 8224.43 233.718 8233.32 240.99C8242.21 247.858 8255.54 253.514 8273.32 257.958L8318.16 269.472C8348.46 277.148 8371.29 288.662 8386.64 304.014C8401.99 318.962 8409.67 337.344 8409.67 359.16C8409.67 378.148 8404.21 394.914 8393.31 409.458C8382.4 423.598 8367.65 434.506 8349.07 442.182C8330.48 449.858 8309.88 453.696 8287.26 453.696ZM1403.43 1119.38C1375.83 1119.38 1351.73 1111.87 1331.12 1096.85C1310.51 1081.48 1296.01 1060 1287.62 1032.4L1329.54 1015.11C1342.12 1056.33 1366.75 1076.94 1403.43 1076.94C1424.04 1076.94 1440.46 1069.78 1452.68 1055.46C1465.26 1041.13 1471.55 1022.27 1471.55 998.864V735.816H1516.09V995.196C1516.09 1021.4 1511.2 1043.93 1501.42 1062.79C1491.98 1081.31 1478.71 1095.45 1461.59 1105.24C1444.82 1114.67 1425.44 1119.38 1403.43 1119.38ZM1670.29 1119.38C1650.72 1119.38 1633.26 1115.54 1617.89 1107.86C1602.52 1100.17 1590.64 1089.69 1582.26 1076.42C1573.87 1062.79 1569.68 1047.42 1569.68 1030.3C1569.68 1002.01 1580.33 980 1601.64 964.28C1622.95 948.211 1649.85 940.176 1682.34 940.176C1698.41 940.176 1713.26 941.923 1726.88 945.416C1740.85 948.909 1751.51 952.927 1758.84 957.468V941.224C1758.84 921.312 1751.86 905.417 1737.88 893.54C1723.91 881.313 1706.27 875.2 1684.96 875.2C1669.94 875.2 1656.14 878.519 1643.56 885.156C1630.99 891.444 1621.03 900.352 1613.7 911.88L1580.16 886.728C1590.64 870.659 1604.96 858.083 1623.13 849C1641.64 839.917 1662.08 835.376 1684.44 835.376C1720.77 835.376 1749.24 844.983 1769.85 864.196C1790.81 883.06 1801.29 908.911 1801.29 941.748V1111H1758.84V1072.75H1756.75C1749.06 1085.67 1737.53 1096.68 1722.16 1105.76C1706.79 1114.84 1689.5 1119.38 1670.29 1119.38ZM1674.48 1080.08C1689.5 1080.08 1703.47 1076.24 1716.4 1068.56C1729.32 1060.87 1739.63 1050.57 1747.32 1037.64C1755 1024.71 1758.84 1010.57 1758.84 995.196C1750.46 989.607 1740.15 985.065 1727.93 981.572C1715.7 978.079 1702.78 976.332 1689.15 976.332C1664.7 976.332 1646.18 981.397 1633.61 991.528C1621.38 1001.66 1615.27 1014.76 1615.27 1030.83C1615.27 1045.5 1620.86 1057.38 1632.04 1066.46C1643.21 1075.54 1657.36 1080.08 1674.48 1080.08ZM1863.25 735.816H1907.79V1111H1863.25V735.816ZM2056.63 1119.38C2037.07 1119.38 2019.61 1115.54 2004.23 1107.86C1988.86 1100.17 1976.99 1089.69 1968.6 1076.42C1960.22 1062.79 1956.03 1047.42 1956.03 1030.3C1956.03 1002.01 1966.68 980 1987.99 964.28C2009.3 948.211 2036.2 940.176 2068.69 940.176C2084.76 940.176 2099.6 941.923 2113.23 945.416C2127.2 948.909 2137.85 952.927 2145.19 957.468V941.224C2145.19 921.312 2138.2 905.417 2124.23 893.54C2110.26 881.313 2092.62 875.2 2071.31 875.2C2056.29 875.2 2042.49 878.519 2029.91 885.156C2017.33 891.444 2007.38 900.352 2000.04 911.88L1966.51 886.728C1976.99 870.659 1991.31 858.083 2009.47 849C2027.99 839.917 2048.43 835.376 2070.78 835.376C2107.11 835.376 2135.58 844.983 2156.19 864.196C2177.15 883.06 2187.63 908.911 2187.63 941.748V1111H2145.19V1072.75H2143.09C2135.41 1085.67 2123.88 1096.68 2108.51 1105.76C2093.14 1114.84 2075.85 1119.38 2056.63 1119.38ZM2060.83 1080.08C2075.85 1080.08 2089.82 1076.24 2102.75 1068.56C2115.67 1060.87 2125.98 1050.57 2133.66 1037.64C2141.35 1024.71 2145.19 1010.57 2145.19 995.196C2136.81 989.607 2126.5 985.065 2114.27 981.572C2102.05 978.079 2089.12 976.332 2075.5 976.332C2051.05 976.332 2032.53 981.397 2019.95 991.528C2007.73 1001.66 2001.61 1014.76 2001.61 1030.83C2001.61 1045.5 2007.2 1057.38 2018.38 1066.46C2029.56 1075.54 2043.71 1080.08 2060.83 1080.08ZM2249.6 843.76H2292.04V883.06H2294.14C2301.47 869.785 2313.18 858.607 2329.25 849.524C2345.32 840.092 2362.43 835.376 2380.6 835.376C2412.74 835.376 2437.19 844.808 2453.96 863.672C2471.08 882.187 2479.63 907.513 2479.63 939.652V1111H2435.09V946.464C2435.09 921.661 2429.16 903.671 2417.28 892.492C2405.4 881.313 2389.16 875.724 2368.55 875.724C2354.22 875.724 2341.3 879.741 2329.77 887.776C2318.59 895.811 2309.86 906.465 2303.57 919.74C2297.28 932.665 2294.14 946.289 2294.14 960.612V1111H2249.6V843.76ZM2656.51 1119.38C2632.75 1119.38 2611.1 1113.27 2591.53 1101.04C2572.32 1088.82 2557.12 1072.05 2545.94 1050.74C2534.77 1029.08 2529.18 1004.63 2529.18 977.38C2529.18 950.481 2534.77 926.203 2545.94 904.544C2557.12 882.885 2572.32 865.943 2591.53 853.716C2611.1 841.489 2632.75 835.376 2656.51 835.376C2677.12 835.376 2695.46 840.092 2711.53 849.524C2727.6 858.607 2739.82 869.96 2748.21 883.584H2750.3L2748.21 846.38V735.816H2792.75V1111H2750.3V1071.7H2748.21C2739.82 1084.97 2727.6 1096.33 2711.53 1105.76C2695.46 1114.84 2677.12 1119.38 2656.51 1119.38ZM2661.75 1079.04C2677.47 1079.04 2691.97 1074.84 2705.24 1066.46C2718.86 1058.08 2729.69 1046.2 2737.73 1030.83C2746.11 1015.46 2750.3 997.641 2750.3 977.38C2750.3 957.119 2746.11 939.303 2737.73 923.932C2729.69 908.561 2718.86 896.684 2705.24 888.3C2691.97 879.916 2677.47 875.724 2661.75 875.724C2646.38 875.724 2631.88 879.916 2618.26 888.3C2604.63 896.684 2593.63 908.736 2585.24 924.456C2577.21 939.827 2573.19 957.468 2573.19 977.38C2573.19 997.292 2577.21 1015.11 2585.24 1030.83C2593.63 1046.2 2604.63 1058.08 2618.26 1066.46C2631.88 1074.84 2646.38 1079.04 2661.75 1079.04ZM2858.54 735.816H2903.08V846.38L2900.99 883.06H2903.08C2910.42 869.436 2921.95 858.083 2937.67 849C2953.74 839.917 2971.2 835.376 2990.07 835.376C3022.56 835.376 3047.36 844.983 3064.48 864.196C3081.59 883.06 3090.15 908.212 3090.15 939.652V1111H3045.61V946.464C3045.61 922.36 3039.5 904.544 3027.27 893.016C3015.04 881.488 2999.15 875.724 2979.59 875.724C2965.61 875.724 2952.69 879.916 2940.81 888.3C2929.28 896.684 2920.03 907.513 2913.04 920.788C2906.4 934.063 2903.08 947.861 2903.08 962.184V1111H2858.54V735.816ZM3237.17 1119.38C3217.61 1119.38 3200.14 1115.54 3184.77 1107.86C3169.4 1100.17 3157.52 1089.69 3149.14 1076.42C3140.75 1062.79 3136.56 1047.42 3136.56 1030.3C3136.56 1002.01 3147.22 980 3168.53 964.28C3189.84 948.211 3216.73 940.176 3249.22 940.176C3265.29 940.176 3280.14 941.923 3293.76 945.416C3307.74 948.909 3318.39 952.927 3325.73 957.468V941.224C3325.73 921.312 3318.74 905.417 3304.77 893.54C3290.79 881.313 3273.15 875.2 3251.84 875.2C3236.82 875.2 3223.02 878.519 3210.45 885.156C3197.87 891.444 3187.91 900.352 3180.58 911.88L3147.04 886.728C3157.52 870.659 3171.84 858.083 3190.01 849C3208.52 839.917 3228.96 835.376 3251.32 835.376C3287.65 835.376 3316.12 844.983 3336.73 864.196C3357.69 883.06 3368.17 908.911 3368.17 941.748V1111H3325.73V1072.75H3323.63C3315.94 1085.67 3304.42 1096.68 3289.05 1105.76C3273.68 1114.84 3256.38 1119.38 3237.17 1119.38ZM3241.36 1080.08C3256.38 1080.08 3270.36 1076.24 3283.28 1068.56C3296.21 1060.87 3306.51 1050.57 3314.2 1037.64C3321.88 1024.71 3325.73 1010.57 3325.73 995.196C3317.34 989.607 3307.04 985.065 3294.81 981.572C3282.58 978.079 3269.66 976.332 3256.03 976.332C3231.58 976.332 3213.07 981.397 3200.49 991.528C3188.26 1001.66 3182.15 1014.76 3182.15 1030.83C3182.15 1045.5 3187.74 1057.38 3198.92 1066.46C3210.1 1075.54 3224.24 1080.08 3241.36 1080.08ZM3430.13 843.76H3472.58V886.728H3474.67C3479.91 872.056 3490.04 860.004 3505.07 850.572C3520.09 840.791 3535.81 835.9 3552.23 835.9C3564.45 835.9 3574.93 837.647 3583.67 841.14V889.348C3572.49 883.759 3559.91 880.964 3545.94 880.964C3533.01 880.964 3521.13 884.632 3510.31 891.968C3499.48 899.304 3490.74 909.26 3484.11 921.836C3477.82 934.063 3474.67 947.337 3474.67 961.66V1111H3430.13V843.76Z" fill="#5F6368"/>
</svg>
